<svg xmlns="http://www.w3.org/2000/svg" id="export" class="canvas" preserveAspectRatio="xMidYMid meet" style="" width="1064" height="118"><rect id="background" fill="#fff" pointer-events="all" width="1064" height="118"/><g id="origin" transform="translate(5.333000183105469, 5.333001136779785) scale(1)"><g id="clusters" class="clusters"/><g id="edge-paths" class="edge-paths"><defs><marker id="arrowhead" viewBox="0 0 10 10" refX="9" refY="5" markerUnits="strokeWidth" markerWidth="8" markerHeight="6" orient="auto" style="fill: rgb(0, 0, 0);"><path d="M 0 0 L 10 5 L 0 10 L 4 5 z" style="stroke-width: 1px;"/></marker><marker id="arrowhead-select" viewBox="0 0 10 10" refX="9" refY="5" markerUnits="strokeWidth" markerWidth="8" markerHeight="6" orient="auto" style="fill: rgba(220, 0, 0, 0.9);"><path d="M 0 0 L 10 5 L 0 10 L 4 5 z" style="stroke-width: 1px;"/></marker><marker id="arrowhead-hover" viewBox="0 0 10 10" refX="9" refY="5" markerUnits="strokeWidth" markerWidth="8" markerHeight="6" orient="auto" style="fill: rgba(220, 0, 0, 0.9);"><path d="M 0 0 L 10 5 L 0 10 L 4 5 z" style="stroke-width: 1px;"/></marker></defs><path id="edge-Image Sequence" class="edge-path" d="M91.42991638183594,53.330002307891846L93.09658304850261,53.330002307891846C94.76324971516927,53.330002307891846,98.09658304850261,53.330002307891846,105.82949988047282,53.330002307891846C113.56241671244304,53.330002307891846,125.69491704305013,53.330002307891846,137.82741737365723,53.330002307891846C149.9599177042643,53.330002307891846,162.09241803487143,53.330002307891846,169.82533486684164,53.330002307891846C177.55825169881186,53.330002307891846,180.89158503214517,53.330002307891846,182.55825169881186,53.330002307891846L184.22491836547852,53.330002307891846" style="stroke: rgb(0, 0, 0); stroke-width: 1px; fill: none; marker-end: url(&quot;#arrowhead&quot;);"/><path class="edge-path-hit-test" d="M91.42991638183594,53.330002307891846L93.09658304850261,53.330002307891846C94.76324971516927,53.330002307891846,98.09658304850261,53.330002307891846,105.82949988047282,53.330002307891846C113.56241671244304,53.330002307891846,125.69491704305013,53.330002307891846,137.82741737365723,53.330002307891846C149.9599177042643,53.330002307891846,162.09241803487143,53.330002307891846,169.82533486684164,53.330002307891846C177.55825169881186,53.330002307891846,180.89158503214517,53.330002307891846,182.55825169881186,53.330002307891846L184.22491836547852,53.330002307891846" style="pointer-events: stroke; stroke-width: 0.5em; fill: none; stroke: rgb(0, 0, 0); stroke-opacity: 0.001;"/><path id="edge-/conv/conv.0/Conv_output_0" class="edge-path" d="M270.36992263793945,53.330002307891846L272.03658930460614,53.330002307891846C273.70325597127277,53.330002307891846,277.03658930460614,53.330002307891846,280.36992263793945,53.330002307891846C283.70325597127277,53.330002307891846,287.03658930460614,53.330002307891846,288.70325597127277,53.330002307891846L290.36992263793945,53.330002307891846" style="stroke: rgb(0, 0, 0); stroke-width: 1px; fill: none; marker-end: url(&quot;#arrowhead&quot;);"/><path class="edge-path-hit-test" d="M270.36992263793945,53.330002307891846L272.03658930460614,53.330002307891846C273.70325597127277,53.330002307891846,277.03658930460614,53.330002307891846,280.36992263793945,53.330002307891846C283.70325597127277,53.330002307891846,287.03658930460614,53.330002307891846,288.70325597127277,53.330002307891846L290.36992263793945,53.330002307891846" style="pointer-events: stroke; stroke-width: 0.5em; fill: none; stroke: rgb(0, 0, 0); stroke-opacity: 0.001;"/><path id="edge-/conv/conv.1/Relu_output_0" class="edge-path" d="M324.7437553405762,53.330002307891846L326.41042200724286,53.330002307891846C328.0770886739095,53.330002307891846,331.41042200724286,53.330002307891846,334.7437553405762,53.330002307891846C338.0770886739095,53.330002307891846,341.41042200724286,53.330002307891846,343.0770886739095,53.330002307891846L344.7437553405762,53.330002307891846" style="stroke: rgb(0, 0, 0); stroke-width: 1px; fill: none; marker-end: url(&quot;#arrowhead&quot;);"/><path class="edge-path-hit-test" d="M324.7437553405762,53.330002307891846L326.41042200724286,53.330002307891846C328.0770886739095,53.330002307891846,331.41042200724286,53.330002307891846,334.7437553405762,53.330002307891846C338.0770886739095,53.330002307891846,341.41042200724286,53.330002307891846,343.0770886739095,53.330002307891846L344.7437553405762,53.330002307891846" style="pointer-events: stroke; stroke-width: 0.5em; fill: none; stroke: rgb(0, 0, 0); stroke-opacity: 0.001;"/><path id="edge-/conv/conv.2/Conv_output_0" class="edge-path" d="M432.1390037536621,53.330002307891846L433.8056704203288,53.330002307891846C435.4723370869954,53.330002307891846,438.8056704203288,53.330002307891846,442.1390037536621,53.330002307891846C445.4723370869954,53.330002307891846,448.8056704203288,53.330002307891846,450.4723370869954,53.330002307891846L452.1390037536621,53.330002307891846" style="stroke: rgb(0, 0, 0); stroke-width: 1px; fill: none; marker-end: url(&quot;#arrowhead&quot;);"/><path class="edge-path-hit-test" d="M432.1390037536621,53.330002307891846L433.8056704203288,53.330002307891846C435.4723370869954,53.330002307891846,438.8056704203288,53.330002307891846,442.1390037536621,53.330002307891846C445.4723370869954,53.330002307891846,448.8056704203288,53.330002307891846,450.4723370869954,53.330002307891846L452.1390037536621,53.330002307891846" style="pointer-events: stroke; stroke-width: 0.5em; fill: none; stroke: rgb(0, 0, 0); stroke-opacity: 0.001;"/><path id="edge-/conv/conv.3/Relu_output_0" class="edge-path" d="M486.5128364562988,53.330002307891846L488.1795031229655,53.330002307891846C489.84616978963214,53.330002307891846,493.1795031229655,53.330002307891846,496.5128364562988,53.330002307891846C499.84616978963214,53.330002307891846,503.1795031229655,53.330002307891846,504.84616978963214,53.330002307891846L506.5128364562988,53.330002307891846" style="stroke: rgb(0, 0, 0); stroke-width: 1px; fill: none; marker-end: url(&quot;#arrowhead&quot;);"/><path class="edge-path-hit-test" d="M486.5128364562988,53.330002307891846L488.1795031229655,53.330002307891846C489.84616978963214,53.330002307891846,493.1795031229655,53.330002307891846,496.5128364562988,53.330002307891846C499.84616978963214,53.330002307891846,503.1795031229655,53.330002307891846,504.84616978963214,53.330002307891846L506.5128364562988,53.330002307891846" style="pointer-events: stroke; stroke-width: 0.5em; fill: none; stroke: rgb(0, 0, 0); stroke-opacity: 0.001;"/><path id="edge-/conv/conv.4/Conv_output_0" class="edge-path" d="M594.2553367614746,53.330002307891846L595.9220034281412,53.330002307891846C597.588670094808,53.330002307891846,600.9220034281412,53.330002307891846,604.2553367614746,53.330002307891846C607.588670094808,53.330002307891846,610.9220034281412,53.330002307891846,612.588670094808,53.330002307891846L614.2553367614746,53.330002307891846" style="stroke: rgb(0, 0, 0); stroke-width: 1px; fill: none; marker-end: url(&quot;#arrowhead&quot;);"/><path class="edge-path-hit-test" d="M594.2553367614746,53.330002307891846L595.9220034281412,53.330002307891846C597.588670094808,53.330002307891846,600.9220034281412,53.330002307891846,604.2553367614746,53.330002307891846C607.588670094808,53.330002307891846,610.9220034281412,53.330002307891846,612.588670094808,53.330002307891846L614.2553367614746,53.330002307891846" style="pointer-events: stroke; stroke-width: 0.5em; fill: none; stroke: rgb(0, 0, 0); stroke-opacity: 0.001;"/><path id="edge-/conv/conv.5/Relu_output_0" class="edge-path" d="M648.6291694641113,53.330002307891846L650.295836130778,53.330002307891846C651.9625027974447,53.330002307891846,655.295836130778,53.330002307891846,658.6291694641113,53.330002307891846C661.9625027974447,53.330002307891846,665.295836130778,53.330002307891846,666.9625027974447,53.330002307891846L668.6291694641113,53.330002307891846" style="stroke: rgb(0, 0, 0); stroke-width: 1px; fill: none; marker-end: url(&quot;#arrowhead&quot;);"/><path class="edge-path-hit-test" d="M648.6291694641113,53.330002307891846L650.295836130778,53.330002307891846C651.9625027974447,53.330002307891846,655.295836130778,53.330002307891846,658.6291694641113,53.330002307891846C661.9625027974447,53.330002307891846,665.295836130778,53.330002307891846,666.9625027974447,53.330002307891846L668.6291694641113,53.330002307891846" style="pointer-events: stroke; stroke-width: 0.5em; fill: none; stroke: rgb(0, 0, 0); stroke-opacity: 0.001;"/><path id="edge-/conv/conv.6/Flatten_output_0" class="edge-path" d="M714.2065048217773,53.330002307891846L715.873171488444,53.330002307891846C717.5398381551107,53.330002307891846,720.873171488444,53.330002307891846,724.2065048217773,53.330002307891846C727.5398381551107,53.330002307891846,730.873171488444,53.330002307891846,732.5398381551107,53.330002307891846L734.2065048217773,53.330002307891846" style="stroke: rgb(0, 0, 0); stroke-width: 1px; fill: none; marker-end: url(&quot;#arrowhead&quot;);"/><path class="edge-path-hit-test" d="M714.2065048217773,53.330002307891846L715.873171488444,53.330002307891846C717.5398381551107,53.330002307891846,720.873171488444,53.330002307891846,724.2065048217773,53.330002307891846C727.5398381551107,53.330002307891846,730.873171488444,53.330002307891846,732.5398381551107,53.330002307891846L734.2065048217773,53.330002307891846" style="pointer-events: stroke; stroke-width: 0.5em; fill: none; stroke: rgb(0, 0, 0); stroke-opacity: 0.001;"/><path id="edge-/linear/linear.0/Gemm_output_0" class="edge-path" d="M810.0397605895996,53.330002307891846L811.7064272562662,53.330002307891846C813.373093922933,53.330002307891846,816.7064272562662,53.330002307891846,820.0397605895996,53.330002307891846C823.373093922933,53.330002307891846,826.7064272562662,53.330002307891846,828.373093922933,53.330002307891846L830.0397605895996,53.330002307891846" style="stroke: rgb(0, 0, 0); stroke-width: 1px; fill: none; marker-end: url(&quot;#arrowhead&quot;);"/><path class="edge-path-hit-test" d="M810.0397605895996,53.330002307891846L811.7064272562662,53.330002307891846C813.373093922933,53.330002307891846,816.7064272562662,53.330002307891846,820.0397605895996,53.330002307891846C823.373093922933,53.330002307891846,826.7064272562662,53.330002307891846,828.373093922933,53.330002307891846L830.0397605895996,53.330002307891846" style="pointer-events: stroke; stroke-width: 0.5em; fill: none; stroke: rgb(0, 0, 0); stroke-opacity: 0.001;"/><path id="edge-/linear/linear.1/Relu_output_0" class="edge-path" d="M864.4135932922363,53.330002307891846L866.080259958903,53.330002307891846C867.7469266255697,53.330002307891846,871.080259958903,53.330002307891846,874.4135932922363,53.330002307891846C877.7469266255697,53.330002307891846,881.080259958903,53.330002307891846,882.7469266255697,53.330002307891846L884.4135932922363,53.330002307891846" style="stroke: rgb(0, 0, 0); stroke-width: 1px; fill: none; marker-end: url(&quot;#arrowhead&quot;);"/><path class="edge-path-hit-test" d="M864.4135932922363,53.330002307891846L866.080259958903,53.330002307891846C867.7469266255697,53.330002307891846,871.080259958903,53.330002307891846,874.4135932922363,53.330002307891846C877.7469266255697,53.330002307891846,881.080259958903,53.330002307891846,882.7469266255697,53.330002307891846L884.4135932922363,53.330002307891846" style="pointer-events: stroke; stroke-width: 0.5em; fill: none; stroke: rgb(0, 0, 0); stroke-opacity: 0.001;"/><path id="edge-Q-Values" class="edge-path" d="M959.4135932922363,53.330002307891846L962.4655377070109,53.330002307891846C965.5174821217855,53.330002307891846,971.6213709513346,53.330002307891846,977.7252597808838,53.330002307891846C983.829148610433,53.330002307891846,989.9330374399821,53.330002307891846,992.9849818547567,53.330002307891846L996.0369262695312,53.330002307891846" style="stroke: rgb(0, 0, 0); stroke-width: 1px; fill: none; marker-end: url(&quot;#arrowhead&quot;);"/><path class="edge-path-hit-test" d="M959.4135932922363,53.330002307891846L962.4655377070109,53.330002307891846C965.5174821217855,53.330002307891846,971.6213709513346,53.330002307891846,977.7252597808838,53.330002307891846C983.829148610433,53.330002307891846,989.9330374399821,53.330002307891846,992.9849818547567,53.330002307891846L996.0369262695312,53.330002307891846" style="pointer-events: stroke; stroke-width: 0.5em; fill: none; stroke: rgb(0, 0, 0); stroke-opacity: 0.001;"/></g><g id="edge-labels" class="edge-labels"><text style="opacity: 1; font-family: -apple-system, BlinkMacSystemFont, &quot;Segoe WPC&quot;, &quot;Segoe UI&quot;, &quot;Ubuntu&quot;, &quot;Droid Sans&quot;, sans-serif, &quot;PingFang SC&quot;; font-size: 10px;" class="edge-label" id="edge-label-edge-Image Sequence" transform="translate(111.42991638183594,63.330002307891846)"><tspan xml:space="preserve" dy="1em" x="1">1×4×84×84</tspan></text><text style="opacity: 1; font-family: -apple-system, BlinkMacSystemFont, &quot;Segoe WPC&quot;, &quot;Segoe UI&quot;, &quot;Ubuntu&quot;, &quot;Droid Sans&quot;, sans-serif, &quot;PingFang SC&quot;; font-size: 10px;" class="edge-label" id="edge-label-edge-Q-Values" transform="translate(969.4135932922363,63.330002307891846)"><tspan xml:space="preserve" dy="1em" x="1">1×4</tspan></text></g><g id="nodes" class="nodes"><g id="input-name-Image Sequence" class="node graph-input" style="" transform="translate(0,42.84000205993652)"><g class="node-item graph-item-input" transform="translate(0,0)"><path d="M5,0h81.42991638183594a5,5 0 0 1 5,5v10.980000495910645a5,5 0 0 1 -5,5h-81.42991638183594a5,5 0 0 1 -5,-5v-10.980000495910645a5,5 0 0 1 5,-5z" style="stroke: rgb(0, 0, 0); fill: rgb(238, 238, 238); stroke-width: 0px;"/><text x="6" y="14.642499923706055" style="font-family: -apple-system, BlinkMacSystemFont, &quot;Segoe WPC&quot;, &quot;Segoe UI&quot;, &quot;Ubuntu&quot;, &quot;Droid Sans&quot;, sans-serif, &quot;PingFang SC&quot;; font-size: 11px; text-rendering: geometricprecision; user-select: none;">Image Sequence</text><title>float32[1,4,84,84]</title></g><path class="node node-border" d="M5,0h81.42991638183594a5,5 0 0 1 5,5v10.980000495910645a5,5 0 0 1 -5,5h-81.42991638183594a5,5 0 0 1 -5,-5v-10.980000495910645a5,5 0 0 1 5,-5z" style="stroke: rgb(51, 51, 51); fill: none; stroke-width: 1px;"/></g><g id="node-name-/conv/conv.0/Conv" class="node graph-node" style="" transform="translate(184.22491836547852,0)"><g class="node-item node-item-type node-item-type-layer" transform="translate(0,0)"><path d="M5,0h76.14500427246094a5,5 0 0 1 5,5v15.980000495910645a0,0 0 0 1 0,0h-86.14500427246094a0,0 0 0 1 0,0v-15.980000495910645a5,5 0 0 1 5,-5z" style="stroke: rgb(0, 0, 0); fill: rgb(51, 85, 136); stroke-width: 0px;"/><text x="6" y="14.642499923706055" style="font-family: -apple-system, BlinkMacSystemFont, &quot;Segoe WPC&quot;, &quot;Segoe UI&quot;, &quot;Ubuntu&quot;, &quot;Droid Sans&quot;, sans-serif, &quot;PingFang SC&quot;; font-size: 11px; text-rendering: geometricprecision; user-select: none; fill: rgb(255, 255, 255);">Conv</text><title>/conv/conv.0/Conv</title></g><g class="node-argument-list" transform="translate(0,20.980000495910645)"><path d="M0,0h86.14500427246094a0,0 0 0 1 0,0v80.68000411987305a5,5 0 0 1 -5,5h-76.14500427246094a5,5 0 0 1 -5,-5v-80.68000411987305a0,0 0 0 1 0,0z" style="stroke: rgb(0, 0, 0); fill: rgb(255, 255, 255); stroke-width: 0px;"/><g class="node-argument"><rect rx="3" ry="3" x="3" y="3" width="80.14500427246094" height="14.600000381469727" style="fill: transparent;"/><text xml:space="preserve" x="6" y="13.539999961853027" style="font-family: -apple-system, BlinkMacSystemFont, &quot;Segoe WPC&quot;, &quot;Segoe UI&quot;, &quot;Ubuntu&quot;, &quot;Droid Sans&quot;, sans-serif, &quot;PingFang SC&quot;; font-size: 9px; font-weight: normal; text-rendering: geometricprecision; user-select: none;"><title>float32[32,4,8,8]</title><tspan style="font-weight: bold;">W</tspan><tspan>〈32×4×8×8〉</tspan></text></g><g class="node-argument"><rect rx="3" ry="3" x="3" y="17.600000381469727" width="80.14500427246094" height="14.600000381469727" style="fill: transparent;"/><text xml:space="preserve" x="6" y="28.140000343322754" style="font-family: -apple-system, BlinkMacSystemFont, &quot;Segoe WPC&quot;, &quot;Segoe UI&quot;, &quot;Ubuntu&quot;, &quot;Droid Sans&quot;, sans-serif, &quot;PingFang SC&quot;; font-size: 9px; font-weight: normal; text-rendering: geometricprecision; user-select: none;"><title>float32[32]</title><tspan style="font-weight: bold;">B</tspan><tspan>〈32〉</tspan></text></g><g class="node-argument"><rect rx="3" ry="3" x="3" y="32.20000076293945" width="80.14500427246094" height="12.620000839233398" style="fill: transparent;"/><text xml:space="preserve" x="6" y="41.907501220703125" style="font-family: -apple-system, BlinkMacSystemFont, &quot;Segoe WPC&quot;, &quot;Segoe UI&quot;, &quot;Ubuntu&quot;, &quot;Droid Sans&quot;, sans-serif, &quot;PingFang SC&quot;; font-size: 9px; font-weight: normal; text-rendering: geometricprecision; user-select: none;"><title>int64[]</title><tspan>dilations</tspan><tspan> = 1, 1</tspan></text></g><g class="node-argument"><rect rx="3" ry="3" x="3" y="44.82000160217285" width="80.14500427246094" height="12.620000839233398" style="fill: transparent;"/><text xml:space="preserve" x="6" y="54.52750205993652" style="font-family: -apple-system, BlinkMacSystemFont, &quot;Segoe WPC&quot;, &quot;Segoe UI&quot;, &quot;Ubuntu&quot;, &quot;Droid Sans&quot;, sans-serif, &quot;PingFang SC&quot;; font-size: 9px; font-weight: normal; text-rendering: geometricprecision; user-select: none;"><title>int64[]</title><tspan>kernel_shape</tspan><tspan> = 8, 8</tspan></text></g><g class="node-argument"><rect rx="3" ry="3" x="3" y="57.44000244140625" width="80.14500427246094" height="12.620000839233398" style="fill: transparent;"/><text xml:space="preserve" x="6" y="67.14750289916992" style="font-family: -apple-system, BlinkMacSystemFont, &quot;Segoe WPC&quot;, &quot;Segoe UI&quot;, &quot;Ubuntu&quot;, &quot;Droid Sans&quot;, sans-serif, &quot;PingFang SC&quot;; font-size: 9px; font-weight: normal; text-rendering: geometricprecision; user-select: none;"><title>int64[]</title><tspan>pads</tspan><tspan> = 0, 0, 0, 0</tspan></text></g><g class="node-argument"><rect rx="3" ry="3" x="3" y="70.06000328063965" width="80.14500427246094" height="12.620000839233398" style="fill: transparent;"/><text xml:space="preserve" x="6" y="79.76750373840332" style="font-family: -apple-system, BlinkMacSystemFont, &quot;Segoe WPC&quot;, &quot;Segoe UI&quot;, &quot;Ubuntu&quot;, &quot;Droid Sans&quot;, sans-serif, &quot;PingFang SC&quot;; font-size: 9px; font-weight: normal; text-rendering: geometricprecision; user-select: none;"><title>int64[]</title><tspan>strides</tspan><tspan> = 4, 4</tspan></text></g><line class="node" x1="0" x2="86.14500427246094" y1="0" y2="0" style="stroke: rgb(51, 51, 51); fill: none; stroke-width: 1px;"/></g><path class="node node-border" d="M5,0h76.14500427246094a5,5 0 0 1 5,5v96.66000461578369a5,5 0 0 1 -5,5h-76.14500427246094a5,5 0 0 1 -5,-5v-96.66000461578369a5,5 0 0 1 5,-5z" style="stroke: rgb(51, 51, 51); fill: none; stroke-width: 1px;"/></g><g id="node-name-/conv/conv.1/Relu" class="node graph-node" style="" transform="translate(290.36992263793945,42.84000205993652)"><g class="node-item node-item-type node-item-type-activation" transform="translate(0,0)"><path d="M5,0h24.37383270263672a5,5 0 0 1 5,5v10.980000495910645a5,5 0 0 1 -5,5h-24.37383270263672a5,5 0 0 1 -5,-5v-10.980000495910645a5,5 0 0 1 5,-5z" style="stroke: rgb(0, 0, 0); fill: rgb(112, 41, 33); stroke-width: 0px;"/><text x="6" y="14.642499923706055" style="font-family: -apple-system, BlinkMacSystemFont, &quot;Segoe WPC&quot;, &quot;Segoe UI&quot;, &quot;Ubuntu&quot;, &quot;Droid Sans&quot;, sans-serif, &quot;PingFang SC&quot;; font-size: 11px; text-rendering: geometricprecision; user-select: none; fill: rgb(255, 255, 255);">Relu</text><title>/conv/conv.1/Relu</title></g><path class="node node-border" d="M5,0h24.37383270263672a5,5 0 0 1 5,5v10.980000495910645a5,5 0 0 1 -5,5h-24.37383270263672a5,5 0 0 1 -5,-5v-10.980000495910645a5,5 0 0 1 5,-5z" style="stroke: rgb(51, 51, 51); fill: none; stroke-width: 1px;"/></g><g id="node-name-/conv/conv.2/Conv" class="node graph-node" style="" transform="translate(344.7437553405762,0)"><g class="node-item node-item-type node-item-type-layer" transform="translate(0,0)"><path d="M5,0h77.39524841308594a5,5 0 0 1 5,5v15.980000495910645a0,0 0 0 1 0,0h-87.39524841308594a0,0 0 0 1 0,0v-15.980000495910645a5,5 0 0 1 5,-5z" style="stroke: rgb(0, 0, 0); fill: rgb(51, 85, 136); stroke-width: 0px;"/><text x="6" y="14.642499923706055" style="font-family: -apple-system, BlinkMacSystemFont, &quot;Segoe WPC&quot;, &quot;Segoe UI&quot;, &quot;Ubuntu&quot;, &quot;Droid Sans&quot;, sans-serif, &quot;PingFang SC&quot;; font-size: 11px; text-rendering: geometricprecision; user-select: none; fill: rgb(255, 255, 255);">Conv</text><title>/conv/conv.2/Conv</title></g><g class="node-argument-list" transform="translate(0,20.980000495910645)"><path d="M0,0h87.39524841308594a0,0 0 0 1 0,0v80.68000411987305a5,5 0 0 1 -5,5h-77.39524841308594a5,5 0 0 1 -5,-5v-80.68000411987305a0,0 0 0 1 0,0z" style="stroke: rgb(0, 0, 0); fill: rgb(255, 255, 255); stroke-width: 0px;"/><g class="node-argument"><rect rx="3" ry="3" x="3" y="3" width="81.39524841308594" height="14.600000381469727" style="fill: transparent;"/><text xml:space="preserve" x="6" y="13.539999961853027" style="font-family: -apple-system, BlinkMacSystemFont, &quot;Segoe WPC&quot;, &quot;Segoe UI&quot;, &quot;Ubuntu&quot;, &quot;Droid Sans&quot;, sans-serif, &quot;PingFang SC&quot;; font-size: 9px; font-weight: normal; text-rendering: geometricprecision; user-select: none;"><title>float32[64,32,4,4]</title><tspan style="font-weight: bold;">W</tspan><tspan>〈64×32×4×4〉</tspan></text></g><g class="node-argument"><rect rx="3" ry="3" x="3" y="17.600000381469727" width="81.39524841308594" height="14.600000381469727" style="fill: transparent;"/><text xml:space="preserve" x="6" y="28.140000343322754" style="font-family: -apple-system, BlinkMacSystemFont, &quot;Segoe WPC&quot;, &quot;Segoe UI&quot;, &quot;Ubuntu&quot;, &quot;Droid Sans&quot;, sans-serif, &quot;PingFang SC&quot;; font-size: 9px; font-weight: normal; text-rendering: geometricprecision; user-select: none;"><title>float32[64]</title><tspan style="font-weight: bold;">B</tspan><tspan>〈64〉</tspan></text></g><g class="node-argument"><rect rx="3" ry="3" x="3" y="32.20000076293945" width="81.39524841308594" height="12.620000839233398" style="fill: transparent;"/><text xml:space="preserve" x="6" y="41.907501220703125" style="font-family: -apple-system, BlinkMacSystemFont, &quot;Segoe WPC&quot;, &quot;Segoe UI&quot;, &quot;Ubuntu&quot;, &quot;Droid Sans&quot;, sans-serif, &quot;PingFang SC&quot;; font-size: 9px; font-weight: normal; text-rendering: geometricprecision; user-select: none;"><title>int64[]</title><tspan>dilations</tspan><tspan> = 1, 1</tspan></text></g><g class="node-argument"><rect rx="3" ry="3" x="3" y="44.82000160217285" width="81.39524841308594" height="12.620000839233398" style="fill: transparent;"/><text xml:space="preserve" x="6" y="54.52750205993652" style="font-family: -apple-system, BlinkMacSystemFont, &quot;Segoe WPC&quot;, &quot;Segoe UI&quot;, &quot;Ubuntu&quot;, &quot;Droid Sans&quot;, sans-serif, &quot;PingFang SC&quot;; font-size: 9px; font-weight: normal; text-rendering: geometricprecision; user-select: none;"><title>int64[]</title><tspan>kernel_shape</tspan><tspan> = 4, 4</tspan></text></g><g class="node-argument"><rect rx="3" ry="3" x="3" y="57.44000244140625" width="81.39524841308594" height="12.620000839233398" style="fill: transparent;"/><text xml:space="preserve" x="6" y="67.14750289916992" style="font-family: -apple-system, BlinkMacSystemFont, &quot;Segoe WPC&quot;, &quot;Segoe UI&quot;, &quot;Ubuntu&quot;, &quot;Droid Sans&quot;, sans-serif, &quot;PingFang SC&quot;; font-size: 9px; font-weight: normal; text-rendering: geometricprecision; user-select: none;"><title>int64[]</title><tspan>pads</tspan><tspan> = 0, 0, 0, 0</tspan></text></g><g class="node-argument"><rect rx="3" ry="3" x="3" y="70.06000328063965" width="81.39524841308594" height="12.620000839233398" style="fill: transparent;"/><text xml:space="preserve" x="6" y="79.76750373840332" style="font-family: -apple-system, BlinkMacSystemFont, &quot;Segoe WPC&quot;, &quot;Segoe UI&quot;, &quot;Ubuntu&quot;, &quot;Droid Sans&quot;, sans-serif, &quot;PingFang SC&quot;; font-size: 9px; font-weight: normal; text-rendering: geometricprecision; user-select: none;"><title>int64[]</title><tspan>strides</tspan><tspan> = 2, 2</tspan></text></g><line class="node" x1="0" x2="87.39524841308594" y1="0" y2="0" style="stroke: rgb(51, 51, 51); fill: none; stroke-width: 1px;"/></g><path class="node node-border" d="M5,0h77.39524841308594a5,5 0 0 1 5,5v96.66000461578369a5,5 0 0 1 -5,5h-77.39524841308594a5,5 0 0 1 -5,-5v-96.66000461578369a5,5 0 0 1 5,-5z" style="stroke: rgb(51, 51, 51); fill: none; stroke-width: 1px;"/></g><g id="node-name-/conv/conv.3/Relu" class="node graph-node" style="" transform="translate(452.1390037536621,42.84000205993652)"><g class="node-item node-item-type node-item-type-activation" transform="translate(0,0)"><path d="M5,0h24.37383270263672a5,5 0 0 1 5,5v10.980000495910645a5,5 0 0 1 -5,5h-24.37383270263672a5,5 0 0 1 -5,-5v-10.980000495910645a5,5 0 0 1 5,-5z" style="stroke: rgb(0, 0, 0); fill: rgb(112, 41, 33); stroke-width: 0px;"/><text x="6" y="14.642499923706055" style="font-family: -apple-system, BlinkMacSystemFont, &quot;Segoe WPC&quot;, &quot;Segoe UI&quot;, &quot;Ubuntu&quot;, &quot;Droid Sans&quot;, sans-serif, &quot;PingFang SC&quot;; font-size: 11px; text-rendering: geometricprecision; user-select: none; fill: rgb(255, 255, 255);">Relu</text><title>/conv/conv.3/Relu</title></g><path class="node node-border" d="M5,0h24.37383270263672a5,5 0 0 1 5,5v10.980000495910645a5,5 0 0 1 -5,5h-24.37383270263672a5,5 0 0 1 -5,-5v-10.980000495910645a5,5 0 0 1 5,-5z" style="stroke: rgb(51, 51, 51); fill: none; stroke-width: 1px;"/></g><g id="node-name-/conv/conv.4/Conv" class="node graph-node" style="" transform="translate(506.5128364562988,0)"><g class="node-item node-item-type node-item-type-layer" transform="translate(0,0)"><path d="M5,0h77.74250030517578a5,5 0 0 1 5,5v15.980000495910645a0,0 0 0 1 0,0h-87.74250030517578a0,0 0 0 1 0,0v-15.980000495910645a5,5 0 0 1 5,-5z" style="stroke: rgb(0, 0, 0); fill: rgb(51, 85, 136); stroke-width: 0px;"/><text x="6" y="14.642499923706055" style="font-family: -apple-system, BlinkMacSystemFont, &quot;Segoe WPC&quot;, &quot;Segoe UI&quot;, &quot;Ubuntu&quot;, &quot;Droid Sans&quot;, sans-serif, &quot;PingFang SC&quot;; font-size: 11px; text-rendering: geometricprecision; user-select: none; fill: rgb(255, 255, 255);">Conv</text><title>/conv/conv.4/Conv</title></g><g class="node-argument-list" transform="translate(0,20.980000495910645)"><path d="M0,0h87.74250030517578a0,0 0 0 1 0,0v80.68000411987305a5,5 0 0 1 -5,5h-77.74250030517578a5,5 0 0 1 -5,-5v-80.68000411987305a0,0 0 0 1 0,0z" style="stroke: rgb(0, 0, 0); fill: rgb(255, 255, 255); stroke-width: 0px;"/><g class="node-argument"><rect rx="3" ry="3" x="3" y="3" width="81.74250030517578" height="14.600000381469727" style="fill: transparent;"/><text xml:space="preserve" x="6" y="13.539999961853027" style="font-family: -apple-system, BlinkMacSystemFont, &quot;Segoe WPC&quot;, &quot;Segoe UI&quot;, &quot;Ubuntu&quot;, &quot;Droid Sans&quot;, sans-serif, &quot;PingFang SC&quot;; font-size: 9px; font-weight: normal; text-rendering: geometricprecision; user-select: none;"><title>float32[64,64,3,3]</title><tspan style="font-weight: bold;">W</tspan><tspan>〈64×64×3×3〉</tspan></text></g><g class="node-argument"><rect rx="3" ry="3" x="3" y="17.600000381469727" width="81.74250030517578" height="14.600000381469727" style="fill: transparent;"/><text xml:space="preserve" x="6" y="28.140000343322754" style="font-family: -apple-system, BlinkMacSystemFont, &quot;Segoe WPC&quot;, &quot;Segoe UI&quot;, &quot;Ubuntu&quot;, &quot;Droid Sans&quot;, sans-serif, &quot;PingFang SC&quot;; font-size: 9px; font-weight: normal; text-rendering: geometricprecision; user-select: none;"><title>float32[64]</title><tspan style="font-weight: bold;">B</tspan><tspan>〈64〉</tspan></text></g><g class="node-argument"><rect rx="3" ry="3" x="3" y="32.20000076293945" width="81.74250030517578" height="12.620000839233398" style="fill: transparent;"/><text xml:space="preserve" x="6" y="41.907501220703125" style="font-family: -apple-system, BlinkMacSystemFont, &quot;Segoe WPC&quot;, &quot;Segoe UI&quot;, &quot;Ubuntu&quot;, &quot;Droid Sans&quot;, sans-serif, &quot;PingFang SC&quot;; font-size: 9px; font-weight: normal; text-rendering: geometricprecision; user-select: none;"><title>int64[]</title><tspan>dilations</tspan><tspan> = 1, 1</tspan></text></g><g class="node-argument"><rect rx="3" ry="3" x="3" y="44.82000160217285" width="81.74250030517578" height="12.620000839233398" style="fill: transparent;"/><text xml:space="preserve" x="6" y="54.52750205993652" style="font-family: -apple-system, BlinkMacSystemFont, &quot;Segoe WPC&quot;, &quot;Segoe UI&quot;, &quot;Ubuntu&quot;, &quot;Droid Sans&quot;, sans-serif, &quot;PingFang SC&quot;; font-size: 9px; font-weight: normal; text-rendering: geometricprecision; user-select: none;"><title>int64[]</title><tspan>kernel_shape</tspan><tspan> = 3, 3</tspan></text></g><g class="node-argument"><rect rx="3" ry="3" x="3" y="57.44000244140625" width="81.74250030517578" height="12.620000839233398" style="fill: transparent;"/><text xml:space="preserve" x="6" y="67.14750289916992" style="font-family: -apple-system, BlinkMacSystemFont, &quot;Segoe WPC&quot;, &quot;Segoe UI&quot;, &quot;Ubuntu&quot;, &quot;Droid Sans&quot;, sans-serif, &quot;PingFang SC&quot;; font-size: 9px; font-weight: normal; text-rendering: geometricprecision; user-select: none;"><title>int64[]</title><tspan>pads</tspan><tspan> = 0, 0, 0, 0</tspan></text></g><g class="node-argument"><rect rx="3" ry="3" x="3" y="70.06000328063965" width="81.74250030517578" height="12.620000839233398" style="fill: transparent;"/><text xml:space="preserve" x="6" y="79.76750373840332" style="font-family: -apple-system, BlinkMacSystemFont, &quot;Segoe WPC&quot;, &quot;Segoe UI&quot;, &quot;Ubuntu&quot;, &quot;Droid Sans&quot;, sans-serif, &quot;PingFang SC&quot;; font-size: 9px; font-weight: normal; text-rendering: geometricprecision; user-select: none;"><title>int64[]</title><tspan>strides</tspan><tspan> = 1, 1</tspan></text></g><line class="node" x1="0" x2="87.74250030517578" y1="0" y2="0" style="stroke: rgb(51, 51, 51); fill: none; stroke-width: 1px;"/></g><path class="node node-border" d="M5,0h77.74250030517578a5,5 0 0 1 5,5v96.66000461578369a5,5 0 0 1 -5,5h-77.74250030517578a5,5 0 0 1 -5,-5v-96.66000461578369a5,5 0 0 1 5,-5z" style="stroke: rgb(51, 51, 51); fill: none; stroke-width: 1px;"/></g><g id="node-name-/conv/conv.5/Relu" class="node graph-node" style="" transform="translate(614.2553367614746,42.84000205993652)"><g class="node-item node-item-type node-item-type-activation" transform="translate(0,0)"><path d="M5,0h24.37383270263672a5,5 0 0 1 5,5v10.980000495910645a5,5 0 0 1 -5,5h-24.37383270263672a5,5 0 0 1 -5,-5v-10.980000495910645a5,5 0 0 1 5,-5z" style="stroke: rgb(0, 0, 0); fill: rgb(112, 41, 33); stroke-width: 0px;"/><text x="6" y="14.642499923706055" style="font-family: -apple-system, BlinkMacSystemFont, &quot;Segoe WPC&quot;, &quot;Segoe UI&quot;, &quot;Ubuntu&quot;, &quot;Droid Sans&quot;, sans-serif, &quot;PingFang SC&quot;; font-size: 11px; text-rendering: geometricprecision; user-select: none; fill: rgb(255, 255, 255);">Relu</text><title>/conv/conv.5/Relu</title></g><path class="node node-border" d="M5,0h24.37383270263672a5,5 0 0 1 5,5v10.980000495910645a5,5 0 0 1 -5,5h-24.37383270263672a5,5 0 0 1 -5,-5v-10.980000495910645a5,5 0 0 1 5,-5z" style="stroke: rgb(51, 51, 51); fill: none; stroke-width: 1px;"/></g><g id="node-name-/conv/conv.6/Flatten" class="node graph-node" style="" transform="translate(668.6291694641113,42.84000205993652)"><g class="node-item node-item-type node-item-type-shape" transform="translate(0,0)"><path d="M5,0h35.577335357666016a5,5 0 0 1 5,5v10.980000495910645a5,5 0 0 1 -5,5h-35.577335357666016a5,5 0 0 1 -5,-5v-10.980000495910645a5,5 0 0 1 5,-5z" style="stroke: rgb(0, 0, 0); fill: rgb(108, 79, 71); stroke-width: 0px;"/><text x="6" y="14.642499923706055" style="font-family: -apple-system, BlinkMacSystemFont, &quot;Segoe WPC&quot;, &quot;Segoe UI&quot;, &quot;Ubuntu&quot;, &quot;Droid Sans&quot;, sans-serif, &quot;PingFang SC&quot;; font-size: 11px; text-rendering: geometricprecision; user-select: none; fill: rgb(255, 255, 255);">Flatten</text><title>/conv/conv.6/Flatten</title></g><path class="node node-border" d="M5,0h35.577335357666016a5,5 0 0 1 5,5v10.980000495910645a5,5 0 0 1 -5,5h-35.577335357666016a5,5 0 0 1 -5,-5v-10.980000495910645a5,5 0 0 1 5,-5z" style="stroke: rgb(51, 51, 51); fill: none; stroke-width: 1px;"/></g><g id="node-name-/linear/linear.0/Gemm" class="node graph-node" style="" transform="translate(734.2065048217773,18.930001258850098)"><g class="node-item node-item-type node-item-type-layer" transform="translate(0,0)"><path d="M5,0h65.83325576782227a5,5 0 0 1 5,5v15.980000495910645a0,0 0 0 1 0,0h-75.83325576782227a0,0 0 0 1 0,0v-15.980000495910645a5,5 0 0 1 5,-5z" style="stroke: rgb(0, 0, 0); fill: rgb(51, 85, 136); stroke-width: 0px;"/><text x="6" y="14.642499923706055" style="font-family: -apple-system, BlinkMacSystemFont, &quot;Segoe WPC&quot;, &quot;Segoe UI&quot;, &quot;Ubuntu&quot;, &quot;Droid Sans&quot;, sans-serif, &quot;PingFang SC&quot;; font-size: 11px; text-rendering: geometricprecision; user-select: none; fill: rgb(255, 255, 255);">Gemm</text><title>/linear/linear.0/Gemm</title></g><g class="node-argument-list" transform="translate(0,20.980000495910645)"><path d="M0,0h75.83325576782227a0,0 0 0 1 0,0v42.82000160217285a5,5 0 0 1 -5,5h-65.83325576782227a5,5 0 0 1 -5,-5v-42.82000160217285a0,0 0 0 1 0,0z" style="stroke: rgb(0, 0, 0); fill: rgb(255, 255, 255); stroke-width: 0px;"/><g class="node-argument"><rect rx="3" ry="3" x="3" y="3" width="69.83325576782227" height="14.600000381469727" style="fill: transparent;"/><text xml:space="preserve" x="6" y="13.539999961853027" style="font-family: -apple-system, BlinkMacSystemFont, &quot;Segoe WPC&quot;, &quot;Segoe UI&quot;, &quot;Ubuntu&quot;, &quot;Droid Sans&quot;, sans-serif, &quot;PingFang SC&quot;; font-size: 9px; font-weight: normal; text-rendering: geometricprecision; user-select: none;"><title>float32[512,3136]</title><tspan style="font-weight: bold;">B</tspan><tspan>〈512×3136〉</tspan></text></g><g class="node-argument"><rect rx="3" ry="3" x="3" y="17.600000381469727" width="69.83325576782227" height="14.600000381469727" style="fill: transparent;"/><text xml:space="preserve" x="6" y="28.140000343322754" style="font-family: -apple-system, BlinkMacSystemFont, &quot;Segoe WPC&quot;, &quot;Segoe UI&quot;, &quot;Ubuntu&quot;, &quot;Droid Sans&quot;, sans-serif, &quot;PingFang SC&quot;; font-size: 9px; font-weight: normal; text-rendering: geometricprecision; user-select: none;"><title>float32[512]</title><tspan style="font-weight: bold;">C</tspan><tspan>〈512〉</tspan></text></g><g class="node-argument"><rect rx="3" ry="3" x="3" y="32.20000076293945" width="69.83325576782227" height="12.620000839233398" style="fill: transparent;"/><text xml:space="preserve" x="6" y="41.907501220703125" style="font-family: -apple-system, BlinkMacSystemFont, &quot;Segoe WPC&quot;, &quot;Segoe UI&quot;, &quot;Ubuntu&quot;, &quot;Droid Sans&quot;, sans-serif, &quot;PingFang SC&quot;; font-size: 9px; font-weight: normal; text-rendering: geometricprecision; user-select: none;"><title>int64</title><tspan>transB</tspan><tspan> = 1</tspan></text></g><line class="node" x1="0" x2="75.83325576782227" y1="0" y2="0" style="stroke: rgb(51, 51, 51); fill: none; stroke-width: 1px;"/></g><path class="node node-border" d="M5,0h65.83325576782227a5,5 0 0 1 5,5v58.800002098083496a5,5 0 0 1 -5,5h-65.83325576782227a5,5 0 0 1 -5,-5v-58.800002098083496a5,5 0 0 1 5,-5z" style="stroke: rgb(51, 51, 51); fill: none; stroke-width: 1px;"/></g><g id="node-name-/linear/linear.1/Relu" class="node graph-node" style="" transform="translate(830.0397605895996,42.84000205993652)"><g class="node-item node-item-type node-item-type-activation" transform="translate(0,0)"><path d="M5,0h24.37383270263672a5,5 0 0 1 5,5v10.980000495910645a5,5 0 0 1 -5,5h-24.37383270263672a5,5 0 0 1 -5,-5v-10.980000495910645a5,5 0 0 1 5,-5z" style="stroke: rgb(0, 0, 0); fill: rgb(112, 41, 33); stroke-width: 0px;"/><text x="6" y="14.642499923706055" style="font-family: -apple-system, BlinkMacSystemFont, &quot;Segoe WPC&quot;, &quot;Segoe UI&quot;, &quot;Ubuntu&quot;, &quot;Droid Sans&quot;, sans-serif, &quot;PingFang SC&quot;; font-size: 11px; text-rendering: geometricprecision; user-select: none; fill: rgb(255, 255, 255);">Relu</text><title>/linear/linear.1/Relu</title></g><path class="node node-border" d="M5,0h24.37383270263672a5,5 0 0 1 5,5v10.980000495910645a5,5 0 0 1 -5,5h-24.37383270263672a5,5 0 0 1 -5,-5v-10.980000495910645a5,5 0 0 1 5,-5z" style="stroke: rgb(51, 51, 51); fill: none; stroke-width: 1px;"/></g><g id="node-name-/linear/linear.2/Gemm" class="node graph-node" style="" transform="translate(884.4135932922363,18.930001258850098)"><g class="node-item node-item-type node-item-type-layer" transform="translate(0,0)"><path d="M5,0h65a5,5 0 0 1 5,5v15.980000495910645a0,0 0 0 1 0,0h-75a0,0 0 0 1 0,0v-15.980000495910645a5,5 0 0 1 5,-5z" style="stroke: rgb(0, 0, 0); fill: rgb(51, 85, 136); stroke-width: 0px;"/><text x="6" y="14.642499923706055" style="font-family: -apple-system, BlinkMacSystemFont, &quot;Segoe WPC&quot;, &quot;Segoe UI&quot;, &quot;Ubuntu&quot;, &quot;Droid Sans&quot;, sans-serif, &quot;PingFang SC&quot;; font-size: 11px; text-rendering: geometricprecision; user-select: none; fill: rgb(255, 255, 255);">Gemm</text><title>/linear/linear.2/Gemm</title></g><g class="node-argument-list" transform="translate(0,20.980000495910645)"><path d="M0,0h75a0,0 0 0 1 0,0v42.82000160217285a5,5 0 0 1 -5,5h-65a5,5 0 0 1 -5,-5v-42.82000160217285a0,0 0 0 1 0,0z" style="stroke: rgb(0, 0, 0); fill: rgb(255, 255, 255); stroke-width: 0px;"/><g class="node-argument"><rect rx="3" ry="3" x="3" y="3" width="69" height="14.600000381469727" style="fill: transparent;"/><text xml:space="preserve" x="6" y="13.539999961853027" style="font-family: -apple-system, BlinkMacSystemFont, &quot;Segoe WPC&quot;, &quot;Segoe UI&quot;, &quot;Ubuntu&quot;, &quot;Droid Sans&quot;, sans-serif, &quot;PingFang SC&quot;; font-size: 9px; font-weight: normal; text-rendering: geometricprecision; user-select: none;"><title>float32[4,512]</title><tspan style="font-weight: bold;">B</tspan><tspan>〈4×512〉</tspan></text></g><g class="node-argument"><rect rx="3" ry="3" x="3" y="17.600000381469727" width="69" height="14.600000381469727" style="fill: transparent;"/><text xml:space="preserve" x="6" y="28.140000343322754" style="font-family: -apple-system, BlinkMacSystemFont, &quot;Segoe WPC&quot;, &quot;Segoe UI&quot;, &quot;Ubuntu&quot;, &quot;Droid Sans&quot;, sans-serif, &quot;PingFang SC&quot;; font-size: 9px; font-weight: normal; text-rendering: geometricprecision; user-select: none;"><title>float32[4]</title><tspan style="font-weight: bold;">C</tspan><tspan>〈4〉</tspan></text></g><g class="node-argument"><rect rx="3" ry="3" x="3" y="32.20000076293945" width="69" height="12.620000839233398" style="fill: transparent;"/><text xml:space="preserve" x="6" y="41.907501220703125" style="font-family: -apple-system, BlinkMacSystemFont, &quot;Segoe WPC&quot;, &quot;Segoe UI&quot;, &quot;Ubuntu&quot;, &quot;Droid Sans&quot;, sans-serif, &quot;PingFang SC&quot;; font-size: 9px; font-weight: normal; text-rendering: geometricprecision; user-select: none;"><title>int64</title><tspan>transB</tspan><tspan> = 1</tspan></text></g><line class="node" x1="0" x2="75" y1="0" y2="0" style="stroke: rgb(51, 51, 51); fill: none; stroke-width: 1px;"/></g><path class="node node-border" d="M5,0h65a5,5 0 0 1 5,5v58.800002098083496a5,5 0 0 1 -5,5h-65a5,5 0 0 1 -5,-5v-58.800002098083496a5,5 0 0 1 5,-5z" style="stroke: rgb(51, 51, 51); fill: none; stroke-width: 1px;"/></g><g class="node" style="" transform="translate(996.0369262695312,42.84000205993652)"><g class="node-item graph-item-output" transform="translate(0,0)"><path d="M5,0h46.99625015258789a5,5 0 0 1 5,5v10.980000495910645a5,5 0 0 1 -5,5h-46.99625015258789a5,5 0 0 1 -5,-5v-10.980000495910645a5,5 0 0 1 5,-5z" style="stroke: rgb(0, 0, 0); fill: rgb(238, 238, 238); stroke-width: 0px;"/><text x="6" y="14.642499923706055" style="font-family: -apple-system, BlinkMacSystemFont, &quot;Segoe WPC&quot;, &quot;Segoe UI&quot;, &quot;Ubuntu&quot;, &quot;Droid Sans&quot;, sans-serif, &quot;PingFang SC&quot;; font-size: 11px; text-rendering: geometricprecision; user-select: none;">Q-Values</text><title>float32[1,4]</title></g><path class="node node-border" d="M5,0h46.99625015258789a5,5 0 0 1 5,5v10.980000495910645a5,5 0 0 1 -5,5h-46.99625015258789a5,5 0 0 1 -5,-5v-10.980000495910645a5,5 0 0 1 5,-5z" style="stroke: rgb(51, 51, 51); fill: none; stroke-width: 1px;"/></g></g></g></svg>